<svg xmlns="http://www.w3.org/2000/svg" viewBox="0 0 800 500">
  <defs>
    <linearGradient id="mbg2" x1="0%" y1="0%" x2="100%" y2="100%">
      <stop offset="0%" style="stop-color:#030712"/>
      <stop offset="40%" style="stop-color:#0f0822"/>
      <stop offset="100%" style="stop-color:#030712"/>
    </linearGradient>
    <linearGradient id="sidebarGrad" x1="0%" y1="0%" x2="0%" y2="100%">
      <stop offset="0%" style="stop-color:#0a0f1a"/>
      <stop offset="100%" style="stop-color:#030712"/>
    </linearGradient>
  </defs>
  <rect width="800" height="500" fill="url(#mbg2)"/>
  <!-- Web browser window -->
  <rect x="100" y="50" width="600" height="400" rx="8" fill="#0a0f1a" stroke="#8b5cf6" stroke-opacity="0.12" stroke-width="1"/>
  <!-- Browser title bar -->
  <rect x="100" y="50" width="600" height="36" rx="8" fill="#111827"/>
  <rect x="100" y="76" width="600" height="10" fill="#111827"/>
  <!-- Traffic lights -->
  <circle cx="120" cy="68" r="4" fill="#ef4444"/>
  <circle cx="136" cy="68" r="4" fill="#f59e0b"/>
  <circle cx="152" cy="68" r="4" fill="#10b981"/>
  <rect x="300" y="60" width="160" height="16" rx="4" fill="#1f2937"/>
  <text x="380" y="72" fill="#6b7280" font-size="8" font-family="system-ui" text-anchor="middle">Gohar Medical Trust</text>
  <!-- Sidebar -->
  <rect x="100" y="86" width="120" height="364" fill="url(#sidebarGrad)" stroke="#8b5cf6" stroke-opacity="0.06" stroke-width="0.5"/>
  <!-- Sidebar menu items -->
  <rect x="112" y="100" width="96" height="24" rx="4" fill="#8b5cf6" opacity="0.15"/>
  <text x="160" y="115" fill="#8b5cf6" font-size="9" font-family="system-ui" text-anchor="middle">Dashboard</text>
  <text x="120" y="143" fill="#6b7280" font-size="8" font-family="system-ui">Patients</text>
  <text x="120" y="163" fill="#6b7280" font-size="8" font-family="system-ui">Appointments</text>
  <text x="120" y="183" fill="#6b7280" font-size="8" font-family="system-ui">Pharmacy</text>
  <text x="120" y="203" fill="#6b7280" font-size="8" font-family="system-ui">Billing</text>
  <!-- Main content area -->
  <!-- Stats cards -->
  <rect x="232" y="96" width="130" height="60" rx="6" fill="#0d1b2a" stroke="#8b5cf6" stroke-opacity="0.08" stroke-width="0.5"/>
  <text x="297" y="116" fill="#6b7280" font-size="8" font-family="system-ui" text-anchor="middle">Today's Patients</text>
  <text x="297" y="142" fill="#f3f4f6" font-size="16" font-family="system-ui" font-weight="bold" text-anchor="middle">128</text>
  <rect x="370" y="96" width="130" height="60" rx="6" fill="#0d1b2a" stroke="#14b8a6" stroke-opacity="0.08" stroke-width="0.5"/>
  <text x="435" y="116" fill="#6b7280" font-size="8" font-family="system-ui" text-anchor="middle">Appointments</text>
  <text x="435" y="142" fill="#f3f4f6" font-size="16" font-family="system-ui" font-weight="bold" text-anchor="middle">64</text>
  <rect x="508" y="96" width="130" height="60" rx="6" fill="#0d1b2a" stroke="#f59e0b" stroke-opacity="0.08" stroke-width="0.5"/>
  <text x="573" y="116" fill="#6b7280" font-size="8" font-family="system-ui" text-anchor="middle">Available Beds</text>
  <text x="573" y="142" fill="#f3f4f6" font-size="16" font-family="system-ui" font-weight="bold" text-anchor="middle">42</text>
  <!-- Table preview -->
  <rect x="232" y="168" width="456" height="160" rx="6" fill="#0d1b2a" stroke="#8b5cf6" stroke-opacity="0.05" stroke-width="0.5"/>
  <rect x="240" y="176" width="440" height="20" rx="4" fill="#1f2937"/>
  <text x="260" y="190" fill="#6b7280" font-size="8" font-family="system-ui">Patient ID</text>
  <text x="340" y="190" fill="#6b7280" font-size="8" font-family="system-ui">Name</text>
  <text x="440" y="190" fill="#6b7280" font-size="8" font-family="system-ui">Department</text>
  <text x="560" y="190" fill="#6b7280" font-size="8" font-family="system-ui">Status</text>
  <!-- Data rows -->
  <rect x="240" y="200" width="440" height="20" rx="2" fill="#8b5cf6" opacity="0.03"/>
  <text x="260" y="214" fill="#6b7280" font-size="8" font-family="system-ui">#1024</text>
  <text x="340" y="214" fill="#f3f4f6" font-size="8" font-family="system-ui">Ali Ahmed</text>
  <text x="440" y="214" fill="#6b7280" font-size="8" font-family="system-ui">Cardiology</text>
  <circle cx="560" cy="210" r="3" fill="#10b981"/>
  <text x="568" y="214" fill="#10b981" font-size="8" font-family="system-ui">Active</text>
  <rect x="240" y="224" width="440" height="20" rx="2" fill="none"/>
  <text x="260" y="238" fill="#6b7280" font-size="8" font-family="system-ui">#1025</text>
  <text x="340" y="238" fill="#f3f4f6" font-size="8" font-family="system-ui">Fatima Khan</text>
  <text x="440" y="238" fill="#6b7280" font-size="8" font-family="system-ui">Pediatrics</text>
  <circle cx="560" cy="234" r="3" fill="#f59e0b"/>
  <text x="568" y="238" fill="#f59e0b" font-size="8" font-family="system-ui">Waiting</text>
  <rect x="240" y="248" width="440" height="20" rx="2" fill="#8b5cf6" opacity="0.03"/>
  <text x="260" y="262" fill="#6b7280" font-size="8" font-family="system-ui">#1026</text>
  <text x="340" y="262" fill="#f3f4f6" font-size="8" font-family="system-ui">Usman Malik</text>
  <text x="440" y="262" fill="#6b7280" font-size="8" font-family="system-ui">Orthopedics</text>
  <circle cx="560" cy="258" r="3" fill="#8b5cf6"/>
  <text x="568" y="262" fill="#8b5cf6" font-size="8" font-family="system-ui">In Progress</text>
</svg>
